<svg xmlns="http://www.w3.org/2000/svg" viewBox="0 0 770 120" width="770" height="120"><rect width="100%" height="100%" rx="16" fill="#1D1C1A"/><g shape-rendering="crispEdges"><rect x="110" y="10" width="25" height="5" fill="#9C9A92"/><rect x="105" y="15" width="5" height="5" fill="#9C9A92"/><rect x="110" y="15" width="5" height="5" fill="#F5F4EE"/><rect x="115" y="15" width="15" height="5" fill="#3D3929"/><rect x="130" y="15" width="5" height="5" fill="#F5F4EE"/><rect x="135" y="15" width="5" height="5" fill="#9C9A92"/><rect x="50" y="20" width="60" height="5" fill="#7A7A88"/><rect x="110" y="20" width="25" height="5" fill="#F5F4EE"/><rect x="135" y="20" width="5" height="5" fill="#9C9A92"/><rect x="45" y="25" width="5" height="5" fill="#7A7A88"/><rect x="105" y="25" width="5" height="5" fill="#9C9A92"/><rect x="110" y="25" width="5" height="5" fill="#7A7A88"/><rect x="115" y="25" width="20" height="5" fill="#F5F4EE"/><rect x="135" y="25" width="5" height="5" fill="#9C9A92"/><rect x="40" y="30" width="10" height="5" fill="#3A3A44"/><rect x="50" y="30" width="55" height="5" fill="#D97757"/><rect x="110" y="30" width="10" height="5" fill="#3A3A44"/><rect x="120" y="30" width="15" height="5" fill="#9C9A92"/><rect x="40" y="35" width="10" height="5" fill="#3A3A44"/><rect x="50" y="35" width="55" height="5" fill="#D97757"/><rect x="105" y="35" width="5" height="5" fill="#9C9A92"/><rect x="110" y="35" width="10" height="5" fill="#3A3A44"/><rect x="45" y="40" width="5" height="5" fill="#9C9A92"/><rect x="50" y="40" width="5" height="5" fill="#D97757"/><rect x="55" y="40" width="5" height="5" fill="#2B2A27"/><rect x="60" y="40" width="30" height="5" fill="#D97757"/><rect x="90" y="40" width="5" height="5" fill="#2B2A27"/><rect x="95" y="40" width="10" height="5" fill="#D97757"/><rect x="45" y="45" width="5" height="5" fill="#D97757"/><rect x="50" y="45" width="10" height="5" fill="#9C9A92"/><rect x="60" y="45" width="5" height="5" fill="#5BB974"/><rect x="65" y="45" width="25" height="5" fill="#D97757"/><rect x="90" y="45" width="5" height="5" fill="#2B2A27"/><rect x="95" y="45" width="10" height="5" fill="#D97757"/><rect x="35" y="50" width="80" height="5" fill="#D97757"/><rect x="35" y="55" width="80" height="5" fill="#D97757"/><rect x="45" y="60" width="60" height="5" fill="#D97757"/><rect x="45" y="65" width="60" height="5" fill="#D97757"/><rect x="50" y="70" width="5" height="5" fill="#D97757"/><rect x="60" y="70" width="5" height="5" fill="#D97757"/><rect x="85" y="70" width="5" height="5" fill="#D97757"/><rect x="95" y="70" width="5" height="5" fill="#D97757"/><rect x="50" y="75" width="5" height="5" fill="#D97757"/><rect x="60" y="75" width="5" height="5" fill="#D97757"/><rect x="85" y="75" width="5" height="5" fill="#D97757"/><rect x="95" y="75" width="5" height="5" fill="#D97757"/></g><text x="75" y="104" font-family="ui-monospace,SFMono-Regular,Menlo,Consolas,monospace" font-size="15" fill="#F5F4EE" text-anchor="middle">+headset</text><g shape-rendering="crispEdges"><rect x="210" y="15" width="10" height="5" fill="#FFD84D"/><rect x="220" y="15" width="30" height="5" fill="#F2B705"/><rect x="180" y="20" width="5" height="5" fill="#9C9A92"/><rect x="200" y="20" width="60" height="5" fill="#F2B705"/><rect x="195" y="25" width="70" height="5" fill="#B88A00"/><rect x="195" y="30" width="60" height="5" fill="#D97757"/><rect x="195" y="35" width="60" height="5" fill="#D97757"/><rect x="185" y="40" width="20" height="5" fill="#D97757"/><rect x="205" y="40" width="5" height="5" fill="#2B2A27"/><rect x="210" y="40" width="30" height="5" fill="#D97757"/><rect x="240" y="40" width="5" height="5" fill="#2B2A27"/><rect x="245" y="40" width="10" height="5" fill="#D97757"/><rect x="185" y="45" width="20" height="5" fill="#D97757"/><rect x="205" y="45" width="5" height="5" fill="#2B2A27"/><rect x="210" y="45" width="30" height="5" fill="#D97757"/><rect x="240" y="45" width="5" height="5" fill="#2B2A27"/><rect x="245" y="45" width="10" height="5" fill="#D97757"/><rect x="195" y="50" width="70" height="5" fill="#D97757"/><rect x="195" y="55" width="70" height="5" fill="#D97757"/><rect x="195" y="60" width="60" height="5" fill="#D97757"/><rect x="195" y="65" width="60" height="5" fill="#D97757"/><rect x="200" y="70" width="5" height="5" fill="#D97757"/><rect x="210" y="70" width="5" height="5" fill="#D97757"/><rect x="235" y="70" width="5" height="5" fill="#D97757"/><rect x="245" y="70" width="5" height="5" fill="#D97757"/><rect x="200" y="75" width="5" height="5" fill="#D97757"/><rect x="210" y="75" width="5" height="5" fill="#D97757"/><rect x="235" y="75" width="5" height="5" fill="#D97757"/><rect x="245" y="75" width="5" height="5" fill="#D97757"/></g><text x="225" y="104" font-family="ui-monospace,SFMono-Regular,Menlo,Consolas,monospace" font-size="15" fill="#F5F4EE" text-anchor="middle">+hardhat</text><g shape-rendering="crispEdges"><rect x="410" y="10" width="10" height="5" fill="#F5F4EE"/><rect x="390" y="15" width="15" height="5" fill="#5A6FD6"/><rect x="410" y="15" width="10" height="5" fill="#F5F4EE"/><rect x="370" y="20" width="40" height="5" fill="#5A6FD6"/><rect x="415" y="20" width="15" height="5" fill="#F5F4EE"/><rect x="345" y="25" width="60" height="5" fill="#F5F4EE"/><rect x="425" y="25" width="5" height="5" fill="#F5F4EE"/><rect x="345" y="30" width="60" height="5" fill="#D97757"/><rect x="420" y="30" width="5" height="5" fill="#F5F4EE"/><rect x="345" y="35" width="60" height="5" fill="#D97757"/><rect x="415" y="35" width="15" height="5" fill="#F5F4EE"/><rect x="345" y="40" width="60" height="5" fill="#D97757"/><rect x="345" y="45" width="5" height="5" fill="#D97757"/><rect x="350" y="45" width="10" height="5" fill="#2B2A27"/><rect x="360" y="45" width="30" height="5" fill="#D97757"/><rect x="390" y="45" width="10" height="5" fill="#2B2A27"/><rect x="400" y="45" width="5" height="5" fill="#D97757"/><rect x="335" y="50" width="80" height="5" fill="#D97757"/><rect x="335" y="55" width="80" height="5" fill="#D97757"/><rect x="345" y="60" width="60" height="5" fill="#D97757"/><rect x="345" y="65" width="60" height="5" fill="#D97757"/><rect x="350" y="70" width="5" height="5" fill="#D97757"/><rect x="360" y="70" width="5" height="5" fill="#D97757"/><rect x="385" y="70" width="5" height="5" fill="#D97757"/><rect x="395" y="70" width="5" height="5" fill="#D97757"/><rect x="350" y="75" width="5" height="5" fill="#D97757"/><rect x="360" y="75" width="5" height="5" fill="#D97757"/><rect x="385" y="75" width="5" height="5" fill="#D97757"/><rect x="395" y="75" width="5" height="5" fill="#D97757"/></g><text x="375" y="104" font-family="ui-monospace,SFMono-Regular,Menlo,Consolas,monospace" font-size="15" fill="#F5F4EE" text-anchor="middle">+nightcap</text><g shape-rendering="crispEdges"><rect x="525" y="10" width="5" height="5" fill="#F5F4EE"/><rect x="525" y="15" width="5" height="5" fill="#E5534B"/><rect x="520" y="20" width="5" height="5" fill="#E5534B"/><rect x="525" y="20" width="5" height="5" fill="#F2C14E"/><rect x="530" y="20" width="5" height="5" fill="#E5534B"/><rect x="520" y="25" width="5" height="5" fill="#F2C14E"/><rect x="525" y="25" width="5" height="5" fill="#E5534B"/><rect x="530" y="25" width="5" height="5" fill="#F2C14E"/><rect x="515" y="30" width="5" height="5" fill="#E5534B"/><rect x="520" y="30" width="5" height="5" fill="#F2C14E"/><rect x="525" y="30" width="5" height="5" fill="#E5534B"/><rect x="530" y="30" width="5" height="5" fill="#F2C14E"/><rect x="535" y="30" width="5" height="5" fill="#E5534B"/><rect x="495" y="35" width="60" height="5" fill="#D97757"/><rect x="495" y="40" width="60" height="5" fill="#D97757"/><rect x="495" y="45" width="10" height="5" fill="#D97757"/><rect x="505" y="45" width="5" height="5" fill="#2B2A27"/><rect x="510" y="45" width="30" height="5" fill="#D97757"/><rect x="540" y="45" width="5" height="5" fill="#2B2A27"/><rect x="545" y="45" width="10" height="5" fill="#D97757"/><rect x="495" y="50" width="10" height="5" fill="#D97757"/><rect x="505" y="50" width="5" height="5" fill="#2B2A27"/><rect x="510" y="50" width="30" height="5" fill="#D97757"/><rect x="540" y="50" width="5" height="5" fill="#2B2A27"/><rect x="545" y="50" width="10" height="5" fill="#D97757"/><rect x="485" y="55" width="80" height="5" fill="#D97757"/><rect x="485" y="60" width="80" height="5" fill="#D97757"/><rect x="495" y="65" width="60" height="5" fill="#D97757"/><rect x="495" y="70" width="60" height="5" fill="#D97757"/><rect x="500" y="75" width="5" height="5" fill="#D97757"/><rect x="510" y="75" width="5" height="5" fill="#D97757"/><rect x="535" y="75" width="5" height="5" fill="#D97757"/><rect x="545" y="75" width="5" height="5" fill="#D97757"/></g><text x="525" y="104" font-family="ui-monospace,SFMono-Regular,Menlo,Consolas,monospace" font-size="15" fill="#F5F4EE" text-anchor="middle">+party</text><g shape-rendering="crispEdges"><rect x="705" y="20" width="5" height="5" fill="#F5F4EE"/><rect x="645" y="30" width="60" height="5" fill="#D97757"/><rect x="645" y="35" width="5" height="5" fill="#D97757"/><rect x="650" y="35" width="15" height="5" fill="#1F1E1D"/><rect x="665" y="35" width="20" height="5" fill="#D97757"/><rect x="685" y="35" width="15" height="5" fill="#1F1E1D"/><rect x="700" y="35" width="5" height="5" fill="#D97757"/><rect x="645" y="40" width="5" height="5" fill="#D97757"/><rect x="650" y="40" width="5" height="5" fill="#1F1E1D"/><rect x="655" y="40" width="5" height="5" fill="#2B2A27"/><rect x="660" y="40" width="30" height="5" fill="#1F1E1D"/><rect x="690" y="40" width="5" height="5" fill="#2B2A27"/><rect x="695" y="40" width="5" height="5" fill="#1F1E1D"/><rect x="700" y="40" width="5" height="5" fill="#D97757"/><rect x="645" y="45" width="5" height="5" fill="#D97757"/><rect x="650" y="45" width="5" height="5" fill="#1F1E1D"/><rect x="655" y="45" width="5" height="5" fill="#D97757"/><rect x="660" y="45" width="5" height="5" fill="#1F1E1D"/><rect x="665" y="45" width="20" height="5" fill="#D97757"/><rect x="685" y="45" width="5" height="5" fill="#1F1E1D"/><rect x="690" y="45" width="5" height="5" fill="#D97757"/><rect x="695" y="45" width="5" height="5" fill="#1F1E1D"/><rect x="700" y="45" width="5" height="5" fill="#D97757"/><rect x="635" y="50" width="15" height="5" fill="#D97757"/><rect x="650" y="50" width="15" height="5" fill="#1F1E1D"/><rect x="665" y="50" width="20" height="5" fill="#D97757"/><rect x="685" y="50" width="15" height="5" fill="#1F1E1D"/><rect x="700" y="50" width="15" height="5" fill="#D97757"/><rect x="635" y="55" width="80" height="5" fill="#D97757"/><rect x="645" y="60" width="60" height="5" fill="#D97757"/><rect x="645" y="65" width="60" height="5" fill="#D97757"/><rect x="650" y="70" width="5" height="5" fill="#D97757"/><rect x="660" y="70" width="5" height="5" fill="#D97757"/><rect x="685" y="70" width="5" height="5" fill="#D97757"/><rect x="695" y="70" width="5" height="5" fill="#D97757"/><rect x="650" y="75" width="5" height="5" fill="#D97757"/><rect x="660" y="75" width="5" height="5" fill="#D97757"/><rect x="685" y="75" width="5" height="5" fill="#D97757"/><rect x="695" y="75" width="5" height="5" fill="#D97757"/></g><text x="675" y="104" font-family="ui-monospace,SFMono-Regular,Menlo,Consolas,monospace" font-size="15" fill="#F5F4EE" text-anchor="middle">+glasses</text></svg>
