<svg xmlns="http://www.w3.org/2000/svg" viewBox="0 0 240 240" width="240" height="240" shape-rendering="crispEdges"><rect width="240" height="240" rx="52.8" fill="#1F1E1D"/><rect x="60" y="53" width="120" height="10" fill="#D97757"/><rect x="60" y="63" width="120" height="10" fill="#D97757"/><rect x="60" y="73" width="20" height="10" fill="#D97757"/><rect x="80" y="73" width="10" height="10" fill="#2B2A27"/><rect x="90" y="73" width="60" height="10" fill="#D97757"/><rect x="150" y="73" width="10" height="10" fill="#2B2A27"/><rect x="160" y="73" width="20" height="10" fill="#D97757"/><rect x="60" y="83" width="20" height="10" fill="#D97757"/><rect x="80" y="83" width="10" height="10" fill="#2B2A27"/><rect x="90" y="83" width="60" height="10" fill="#D97757"/><rect x="150" y="83" width="10" height="10" fill="#2B2A27"/><rect x="160" y="83" width="20" height="10" fill="#D97757"/><rect x="40" y="93" width="160" height="10" fill="#D97757"/><rect x="40" y="103" width="160" height="10" fill="#D97757"/><rect x="60" y="113" width="120" height="10" fill="#D97757"/><rect x="60" y="123" width="120" height="10" fill="#D97757"/><rect x="70" y="133" width="10" height="10" fill="#D97757"/><rect x="90" y="133" width="10" height="10" fill="#D97757"/><rect x="140" y="133" width="10" height="10" fill="#D97757"/><rect x="160" y="133" width="10" height="10" fill="#D97757"/><rect x="70" y="143" width="10" height="10" fill="#D97757"/><rect x="90" y="143" width="10" height="10" fill="#D97757"/><rect x="140" y="143" width="10" height="10" fill="#D97757"/><rect x="160" y="143" width="10" height="10" fill="#D97757"/><rect x="30" y="163" width="180" height="10" rx="5" fill="#9C9A92" opacity=".35"/><rect x="30" y="163" width="112" height="10" rx="5" fill="#5BB974"/></svg>
